<svg width="16" height="16" viewBox="0 0 16 16" fill="none" xmlns="http://www.w3.org/2000/svg">
<g clip-path="url(#clip0_310_1329)">
<path d="M8 11.1255C9.72589 11.1255 11.125 9.72638 11.125 8.00049C11.125 6.2746 9.72589 4.87549 8 4.87549C6.27411 4.87549 4.875 6.2746 4.875 8.00049C4.875 9.72638 6.27411 11.1255 8 11.1255Z" stroke="current" stroke-width="1.3" stroke-linecap="round" stroke-linejoin="round"/>
<path d="M8 1.12549V2.37549" stroke="current" stroke-width="1.3" stroke-linecap="round" stroke-linejoin="round"/>
<path d="M8 13.625V14.875" stroke="current" stroke-width="1.3" stroke-linecap="round" stroke-linejoin="round"/>
<path d="M3.1377 3.13818L4.0252 4.02568" stroke="current" stroke-width="1.3" stroke-linecap="round" stroke-linejoin="round"/>
<path d="M11.9746 11.9756L12.8621 12.8631" stroke="current" stroke-width="1.3" stroke-linecap="round" stroke-linejoin="round"/>
<path d="M1.125 8H2.375" stroke="current" stroke-width="1.3" stroke-linecap="round" stroke-linejoin="round"/>
<path d="M13.625 8H14.875" stroke="current" stroke-width="1.3" stroke-linecap="round" stroke-linejoin="round"/>
<path d="M3.1377 12.8631L4.0252 11.9756" stroke="current" stroke-width="1.3" stroke-linecap="round" stroke-linejoin="round"/>
<path d="M11.9746 4.02568L12.8621 3.13818" stroke="current" stroke-width="1.3" stroke-linecap="round" stroke-linejoin="round"/>
</g>
<defs>
<clipPath id="clip0_310_1329">
<rect width="15" height="15" fill="white" transform="translate(0.5 0.5)"/>
</clipPath>
</defs>
</svg>
