<svg width="24" height="24" viewBox="0 0 24 24" fill="current" xmlns="http://www.w3.org/2000/svg">
<path d="M13.34 8.17C12.41 8.17 11.65 7.4 11.65 6.47C11.65 6.02178 11.8281 5.59193 12.145 5.27499C12.4619 4.95805 12.8918 4.78 13.34 4.78C14.28 4.78 15.04 5.54 15.04 6.47C15.04 7.4 14.28 8.17 13.34 8.17ZM10.4073 19.4546C10.3476 19.7191 10.088 19.8878 9.82204 19.8349L4.86086 18.8477C4.58984 18.7937 4.41396 18.5302 4.46815 18.2592L4.61149 17.5426C4.66582 17.2709 4.93069 17.0952 5.2021 17.1508L8.36637 17.7989C8.63838 17.8546 8.90368 17.678 8.95729 17.4056L10.0334 11.9375C10.1097 11.5496 9.72694 11.2307 9.35921 11.3758L9.00642 11.5151C8.81547 11.5905 8.69 11.7749 8.69 11.9802V14C8.69 14.2761 8.46614 14.5 8.19 14.5H7.5C7.22386 14.5 7 14.2761 7 14V10.8708C7 10.6702 7.11985 10.4891 7.30443 10.4106L11.3344 8.69786C11.3779 8.67938 11.4238 8.66716 11.4707 8.66155L12.07 8.59C12.67 8.59 13.17 8.93 13.5 9.44L14.36 10.79C14.9684 11.8727 16.1133 12.6431 17.5008 12.7933C17.7753 12.823 18 13.0439 18 13.32V14C18 14.2761 17.7757 14.5021 17.5005 14.48C16.2065 14.3761 15.0127 13.8738 14.0751 13.1115C13.752 12.8488 13.2226 12.9965 13.1421 13.4051L12.8929 14.6711C12.86 14.8386 12.9147 15.0114 13.0382 15.1293L14.4553 16.4823C14.5541 16.5766 14.61 16.7073 14.61 16.8439V22.5C14.61 22.7761 14.3861 23 14.11 23H13.42C13.1439 23 12.92 22.7761 12.92 22.5V18.1147C12.92 17.9776 12.8637 17.8465 12.7643 17.7521L11.7782 16.8159C11.4968 16.5488 11.0316 16.6899 10.9462 17.0684L10.4073 19.4546ZM21 22.5C21 22.7761 20.7761 23 20.5 23H19.5C19.2239 23 19 22.7761 19 22.5V3.5C19 3.22386 18.7761 3 18.5 3H6.5C6.22386 3 6 3.22386 6 3.5V15.4941C6 15.8116 5.70795 16.0487 5.39724 15.9834L4.39724 15.7734C4.16575 15.7248 4 15.5206 4 15.2841V1.5C4 1.22386 4.22386 1 4.5 1H20.5C20.7761 1 21 1.22386 21 1.5V22.5ZM6 22.5C6 22.7761 5.77614 23 5.5 23H4.5C4.22386 23 4 22.7761 4 22.5V20.3959C4 20.0784 4.29205 19.8413 4.60276 19.9066L5.60276 20.1166C5.83425 20.1652 6 20.3694 6 20.6059V22.5Z" fill="current"/>
</svg>
