<svg width="20" height="20" viewBox="0 0 20 20" fill="current" xmlns="http://www.w3.org/2000/svg">
<path fill-rule="evenodd" clip-rule="evenodd" d="M12.0352 0.809201C12.4052 0.543201 12.9252 0.419201 13.4362 0.606201C14.5226 1.00418 15.5316 1.58786 16.4182 2.3312C16.8352 2.6812 16.9882 3.1922 16.9422 3.6442C16.8672 4.3972 16.9992 5.1242 17.3622 5.7502C17.6822 6.3072 18.1642 6.7472 18.7522 7.0572L18.9772 7.1672C19.3912 7.3542 19.7592 7.7432 19.8522 8.2802C20.0497 9.41836 20.0497 10.582 19.8522 11.7202C19.7692 12.2042 19.4622 12.5672 19.0992 12.7712L18.9772 12.8342C18.2872 13.1442 17.7232 13.6242 17.3612 14.2502C16.9992 14.8772 16.8672 15.6032 16.9422 16.3562C16.9872 16.8082 16.8352 17.3202 16.4182 17.6692C15.5316 18.4125 14.5226 18.9962 13.4362 19.3942C13.204 19.4773 12.955 19.5022 12.7109 19.4668C12.4669 19.4314 12.2352 19.3368 12.0362 19.1912C11.4202 18.7502 10.7232 18.5002 10.0002 18.5002C9.27717 18.5002 8.58017 18.7492 7.96517 19.1912C7.76602 19.337 7.53417 19.4317 7.28994 19.4671C7.0457 19.5024 6.79651 19.4774 6.56417 19.3942C5.47777 18.9962 4.46877 18.4126 3.58217 17.6692C3.39439 17.5097 3.24848 17.3066 3.15715 17.0778C3.06582 16.8489 3.03184 16.6012 3.05817 16.3562C3.13317 15.6032 3.00017 14.8762 2.63817 14.2502C2.30847 13.6913 1.8263 13.2379 1.24817 12.9432L1.02317 12.8332C0.797519 12.7332 0.599784 12.5795 0.447252 12.3855C0.29472 12.1915 0.192035 11.9631 0.148173 11.7202C-0.0493911 10.582 -0.0493911 9.41836 0.148173 8.2802C0.231173 7.7962 0.538173 7.4332 0.901173 7.2292L1.02317 7.1672C1.71317 6.8562 2.27717 6.3772 2.63917 5.7502C3.00017 5.1242 3.13317 4.3972 3.05817 3.6442C3.03184 3.39921 3.06582 3.15149 3.15715 2.92264C3.24848 2.69379 3.39439 2.49074 3.58217 2.3312C4.46878 1.58786 5.47778 1.00418 6.56417 0.606201C6.79638 0.523235 7.04536 0.498358 7.2894 0.533743C7.53343 0.569128 7.76509 0.663698 7.96417 0.809201C8.57917 1.2512 9.27617 1.5002 10.0002 1.5002C10.7242 1.5002 11.4202 1.2512 12.0352 0.809201ZM12.9922 2.5782C12.1262 3.1482 11.1052 3.5002 10.0002 3.5002C8.89517 3.5002 7.87417 3.1472 7.00817 2.5782C6.31201 2.8592 5.65892 3.23692 5.06817 3.7002C5.12817 4.7332 4.92317 5.7932 4.37117 6.7502C3.81817 7.7062 3.00317 8.4132 2.07817 8.8782C1.97396 9.6219 1.97396 10.3765 2.07817 11.1202C3.00317 11.5852 3.81817 12.2922 4.37117 13.2502C4.92317 14.2052 5.12817 15.2652 5.06817 16.2982C5.65886 16.7618 6.31195 17.1399 7.00817 17.4212C7.87417 16.8512 8.89517 16.4992 10.0002 16.4992C11.1052 16.4992 12.1262 16.8522 12.9922 17.4212C13.6883 17.1402 14.3414 16.7625 14.9322 16.2992C14.8722 15.2652 15.0772 14.2052 15.6292 13.2492C16.1812 12.2922 16.9972 11.5852 17.9222 11.1192C18.0264 10.3762 18.0264 9.62223 17.9222 8.8792C16.9972 8.4132 16.1822 7.7062 15.6292 6.7492C15.0772 5.7932 14.8722 4.7332 14.9322 3.6992C14.3414 3.23592 13.6883 2.8582 12.9922 2.5772V2.5782ZM10.0002 6.0002C11.061 6.0002 12.0785 6.42163 12.8286 7.17177C13.5787 7.92192 14.0002 8.93933 14.0002 10.0002C14.0002 11.0611 13.5787 12.0785 12.8286 12.8286C12.0785 13.5788 11.061 14.0002 10.0002 14.0002C8.93931 14.0002 7.92189 13.5788 7.17175 12.8286C6.4216 12.0785 6.00017 11.0611 6.00017 10.0002C6.00017 8.93933 6.4216 7.92192 7.17175 7.17177C7.92189 6.42163 8.93931 6.0002 10.0002 6.0002ZM10.0002 8.0002C9.46974 8.0002 8.96103 8.21092 8.58596 8.58599C8.21089 8.96106 8.00017 9.46977 8.00017 10.0002C8.00017 10.5306 8.21089 11.0393 8.58596 11.4144C8.96103 11.7895 9.46974 12.0002 10.0002 12.0002C10.5306 12.0002 11.0393 11.7895 11.4144 11.4144C11.7895 11.0393 12.0002 10.5306 12.0002 10.0002C12.0002 9.46977 11.7895 8.96106 11.4144 8.58599C11.0393 8.21092 10.5306 8.0002 10.0002 8.0002Z" fill="current"/>
</svg>
