<svg width="24" height="24" viewBox="0 0 24 24" fill="current" xmlns="http://www.w3.org/2000/svg">
<path d="M18.7188 18.0606C18.8965 18.0606 19.0503 18.1255 19.1802 18.2555C19.3101 18.3854 19.375 18.5393 19.375 18.7171C19.375 18.895 19.3101 19.0489 19.1802 19.1788C19.0503 19.3087 18.8965 19.3737 18.7188 19.3737H10.8438C10.666 19.3737 10.5122 19.3087 10.3823 19.1788C10.2524 19.0489 10.1875 18.895 10.1875 18.7171C10.1875 18.5393 10.2524 18.3854 10.3823 18.2555C10.5122 18.1255 10.666 18.0606 10.8438 18.0606H18.7188ZM17.4062 20.6869C17.584 20.6869 17.7378 20.7518 17.8677 20.8818C17.9976 21.0117 18.0625 21.1656 18.0625 21.3434C18.0625 21.5213 17.9976 21.6751 17.8677 21.8051C17.7378 21.935 17.584 22 17.4062 22H12.1562C11.9785 22 11.8247 21.935 11.6948 21.8051C11.5649 21.6751 11.5 21.5213 11.5 21.3434C11.5 21.1656 11.5649 21.0117 11.6948 20.8818C11.8247 20.7518 11.9785 20.6869 12.1562 20.6869H17.4062ZM19.8467 15.4343H22V16.7474H6.50635C6.43799 17.1852 6.39014 17.6229 6.36279 18.0606C6.33545 18.4983 6.31152 18.9326 6.29102 19.3635C6.27051 19.7943 6.26025 20.232 6.26025 20.6766C6.26025 21.1212 6.25684 21.5623 6.25 22H2.3125V20.02C2.3125 19.466 2.33301 18.9189 2.37402 18.3786C2.41504 17.8383 2.47314 17.2946 2.54834 16.7474H1V15.4343H2.76367C3.10547 13.7587 3.62158 12.148 4.31201 10.6023C5.00244 9.05667 5.85693 7.59648 6.87549 6.22179C5.87744 6.18759 4.96143 5.97899 4.12744 5.59599C3.29346 5.21299 2.53125 4.66585 1.84082 3.95457L1.37939 3.48266L1.86133 3.03127C2.57227 2.36786 3.35156 1.86517 4.19922 1.5232C5.04688 1.18124 5.95947 1.00684 6.93701 1C8.00342 1 8.98096 1.19834 9.86963 1.59502C10.7583 1.9917 11.5752 2.56619 12.3203 3.31852C12.8467 3.33219 13.356 3.41426 13.8481 3.56473C14.3403 3.71519 14.7983 3.92037 15.2222 4.18026C15.646 4.44016 16.0322 4.74792 16.3809 5.10357C16.7295 5.45921 17.0269 5.85247 17.2729 6.28334C17.519 6.71422 17.7139 7.17587 17.8574 7.6683C18.001 8.16072 18.0693 8.67367 18.0625 9.20713V9.8637H17.4062C16.5039 9.8637 15.6597 9.6722 14.8735 9.2892C14.0874 8.9062 13.4072 8.36248 12.833 7.65804C12.3135 8.60186 11.6606 9.37811 10.8745 9.98681C10.0884 10.5955 9.16895 11.023 8.11621 11.2692C7.82227 11.9463 7.5625 12.6302 7.33691 13.321C7.11133 14.0117 6.9165 14.7162 6.75244 15.4343H9.71582C9.86621 14.8598 10.1021 14.3332 10.4233 13.8544C10.7446 13.3757 11.1274 12.9585 11.5718 12.6028C12.0161 12.2472 12.5151 11.977 13.0688 11.7924C13.6226 11.6077 14.1934 11.5085 14.7812 11.4949C15.376 11.4949 15.9468 11.5906 16.4937 11.7821C17.0405 11.9736 17.5361 12.2472 17.9805 12.6028C18.4248 12.9585 18.811 13.3723 19.1392 13.8442C19.4673 14.3161 19.7031 14.8461 19.8467 15.4343ZM13.6943 4.88813C13.6533 5.33268 13.5645 5.78407 13.4277 6.24231C13.7764 6.84416 14.2344 7.34343 14.8018 7.74011C15.3691 8.13679 16.0015 8.38984 16.6987 8.49927C16.6304 8.08207 16.5107 7.68881 16.3398 7.31949C16.1689 6.95017 15.9536 6.60479 15.6938 6.28334C15.4341 5.9619 15.1333 5.68832 14.7915 5.46263C14.4497 5.23693 14.084 5.04543 13.6943 4.88813ZM12.4023 4.95994C11.7051 5.01466 11.0488 5.18564 10.4336 5.47289C9.81836 5.76014 9.26807 6.1363 8.78271 6.60137C8.29736 7.06644 7.89746 7.60332 7.58301 8.21202C7.26855 8.82071 7.06006 9.46702 6.95752 10.151C7.53857 10.1031 8.08887 9.97997 8.6084 9.78163C9.12793 9.58329 9.60303 9.31656 10.0337 8.98144C10.4644 8.64631 10.8472 8.26331 11.1821 7.83244C11.5171 7.40156 11.7939 6.90914 12.0127 6.35515C12.1084 6.12946 12.187 5.90034 12.2485 5.66781C12.3101 5.43527 12.3613 5.19932 12.4023 4.95994ZM3.29688 3.52369C3.84375 3.97509 4.44873 4.32047 5.11182 4.55984C5.7749 4.79922 6.46191 4.91891 7.17285 4.91891C7.83594 4.91891 8.4751 4.81632 9.09033 4.61114C9.70557 4.40596 10.2798 4.10503 10.813 3.70835C10.2661 3.25696 9.66113 2.91158 8.99805 2.6722C8.33496 2.43283 7.64795 2.31314 6.93701 2.31314C6.27393 2.31314 5.63477 2.41573 5.01953 2.62091C4.4043 2.82609 3.83008 3.12702 3.29688 3.52369ZM6.55762 11.4744C6.50293 11.488 6.44824 11.4949 6.39355 11.4949C6.33887 11.4949 6.28418 11.4949 6.22949 11.4949H5.90137C5.79199 11.4949 5.68262 11.488 5.57324 11.4744V10.9922C5.21094 11.7992 4.90674 12.5926 4.66064 13.3723C4.41455 14.1519 4.21289 14.9384 4.05566 15.7318C3.89844 16.5252 3.78906 17.3288 3.72754 18.1426C3.66602 18.9565 3.63184 19.8046 3.625 20.6869H4.9375C4.9375 19.8593 4.96484 19.0591 5.01953 18.2863C5.07422 17.5134 5.1665 16.7509 5.29639 15.9985C5.42627 15.2462 5.59375 14.4973 5.79883 13.7518C6.00391 13.0064 6.25684 12.2472 6.55762 11.4744ZM11.0898 15.4343H18.4727C18.3359 15.0445 18.1445 14.6888 17.8984 14.3674C17.6523 14.0459 17.3687 13.7689 17.0474 13.5364C16.7261 13.3039 16.3706 13.126 15.981 13.0029C15.5913 12.8798 15.1914 12.8149 14.7812 12.808C14.3643 12.808 13.9644 12.8696 13.5815 12.9927C13.1987 13.1158 12.8467 13.2936 12.5254 13.5261C12.2041 13.7587 11.917 14.0357 11.6641 14.3571C11.4111 14.6786 11.2197 15.0376 11.0898 15.4343Z" fill="current"/>
</svg>
